<svg width="1845" height="315" viewBox="0 0 1845 315" fill="none" xmlns="http://www.w3.org/2000/svg">
<path d="M2155.97 129.179L2176.61 133.233L2018.34 146.299L1766.04 94.8621L1570.44 184.636L1260.45 314.5L709.807 250.5L14.2594 198.906L0 51L14.2594 54.8001L36.9349 58.2584L58.6555 63.5294L78.7866 71.7531L104.088 69.9261L125.617 75.2138L147.099 81.1765L168.701 88.6943L192.438 88.2173L214.226 92.272L236.378 90.5523L257.86 82.8913L280.369 91.2225L302.032 89.2119L323.65 87.1488L345.371 84.2295L367.569 80.5898L388.648 87.6353L410.712 91.2583L432.8 94.8621L457.624 95.642L472.518 109.569L495.17 113.824L517.415 118.408L537.251 125.887L556.584 135.795L580.978 134.617L603.654 137.517L626.687 139.618L649.84 138.874L672.754 134.998L695.955 138.945L718.941 133.188L741.95 140.396L765.27 140.687L789.139 140.667L812.435 143.131L835.444 146.299L858.311 149.361L879.936 156.516L901.514 159.307L923.401 160.845L945.695 159.126L967.511 160.34L988.754 166.751L1010.36 168.816L1033.7 162.023L1053.77 170.753L1077.12 168.561L1096.36 176.766L1114.97 184.636L1136.65 187.663L1159.82 188.841L1173.81 203.039L1198.63 201.029L1215.53 212.716L1239.78 206.956L1260.45 215.013L1280.96 208.811L1304.47 207.564L1322.68 198.906L1332.8 184.997L1355.48 179.597L1367.29 167.409L1378.25 154.913L1390.8 142.053L1404.62 129.753L1422.62 120.01L1437.47 108.238L1461.19 102.659L1473.79 89.2571L1495.56 82.61L1508.12 68.8266L1531.89 64.0565L1544.35 49.8749L1570.44 47.4659L1585.26 35.1327L1601.23 25.497L1625.15 22.5801L1641.71 13.6527L1661.05 8.25529L1678.97 0.973633L1705.25 3.35871L1725.09 14.1726L1744.66 24.605L1766.04 33.8233L1788.24 31.5789L1809.32 33.1721L1830.54 37.3365L1852.21 33.6038L1873.84 33.7684L1895.51 34.856L1917.18 36.7021L1935.78 47.027L1958.33 46.4833L1977.83 55.4845L1999.58 61.2635L2018.34 70.5916L2044.31 72.347L2062.95 81.8873L2080.42 92.4461L2097.27 103.532L2119.09 109.888L2140.91 116.173L2155.97 129.179Z" fill="#0E0E0E"/>
</svg>
