<svg width="1920" height="207" viewBox="0 0 1920 207" fill="none" xmlns="http://www.w3.org/2000/svg">
<path d="M2007.34 200.817L1999.92 200.46L1974.57 196.293L1948.86 196.107L1923.75 191.298L1898.83 185.555L1872.93 185.894L1847.61 182.524L1823.64 172.533L1797.25 174.512L1771.85 171.636L1747.45 163.927L1723.37 159.1L1698.38 155.63L1679.62 138.793L1657.99 128.664L1633.07 123.55L1612.83 110.814L1592.02 98.9579L1569.32 90.052L1549.68 75.9801L1520.29 71.9827L1491.6 68.138L1463.77 60.1432L1440.19 50.5051L1422.26 34.0266L1401.26 21.493L1380.4 8.45389L1356.12 1.96649L1330.87 1.28906L1306.6 8.58746L1282.51 13.2121L1257.62 14.6694L1232.87 17.4623L1210.19 27.9137L1185.99 33.2801L1161.83 39.5815L1136.39 44.8286L1112.11 52.8568L1088.2 61.8843L1063.32 69.6931L1036.26 69.643L1016.83 53.3648L993.413 62.4281L970.809 72.808L947.179 81.3632L922.069 85.4178L897.34 87.3665L871.753 90.5147L846.738 82.644L820.387 81.69L794.609 78.2865L768.902 73.3422L744.389 76.4237L719.995 76.0182L695.815 79.3574L671.589 81.814L646.669 80.8146L622.657 85.1674L597.929 84.9146L574.514 93.7895L549.619 89.234L525.463 90.0115L501.05 92.5015L476.773 92.4848L454.394 81.9166L429.742 85.4727L406.384 88.3014L380.811 92.833L361.537 109.025L337.386 117.9L318.305 133.515L298.186 148.214L275.272 159.446L250.04 165.814L224.262 167.961L197.051 172.311L169.602 168.297L142.189 171.5L114.792 170.737L86.8773 170.431L63.1779 180.714L37.5689 182.948L11.8646 185.438L-10.6223 198.394L-35.9233 202.339L-48.5739 205.137" stroke="#1E1E1E" stroke-width="2"/>
</svg>
