<svg width="1920" height="204" viewBox="0 0 1920 204" fill="none" xmlns="http://www.w3.org/2000/svg">
<path d="M2092.34 200.817L2084.92 200.46L2059.57 196.293L2033.86 196.107L2008.75 191.298L1983.83 185.555L1957.93 185.894L1932.61 182.524L1908.64 172.533L1882.25 174.512L1856.85 171.636L1832.45 163.927L1808.37 159.1L1783.38 155.63L1764.62 138.793L1742.99 128.664L1718.07 123.55L1697.83 110.814L1677.02 98.9579L1654.32 90.052L1634.68 75.9801L1605.29 71.9827L1576.6 68.138L1548.77 60.1432L1525.19 50.5051L1507.26 34.0266L1486.26 21.493L1465.4 8.45389L1441.12 1.96649L1415.87 1.28906L1391.6 8.58746L1367.51 13.2121L1342.62 14.6694L1317.87 17.4623L1295.19 27.9137L1270.99 33.2801L1246.83 39.5815L1221.39 44.8286L1197.11 52.8568L1173.2 61.8843L1148.32 69.6931L1121.26 69.643L1101.83 53.3648L1078.41 62.4281L1055.81 72.808L1032.18 81.3632L1007.07 85.4178L982.34 87.3665L956.753 90.5147L931.738 82.644L905.387 81.69L879.609 78.2865L853.902 73.3422L829.389 76.4237L804.995 76.0182L780.815 79.3574L756.589 81.814L731.669 80.8146L707.657 85.1674L682.929 84.9146L659.514 93.7895L634.619 89.234L610.463 90.0115L586.05 92.5015L561.773 92.4848L539.394 81.9166L514.742 85.4727L491.384 88.3014L465.811 92.833L446.537 109.025L422.386 117.9L403.305 133.515L383.186 148.214L360.272 159.446L335.04 165.814L309.262 167.961L282.051 172.311L254.602 168.297L227.189 171.5L199.792 170.737L171.877 170.431L148.178 180.714L122.569 182.948L96.8646 185.438L74.3777 198.394L49.0767 202.339L-3.5 196" stroke="#232323" stroke-width="2"/>
</svg>
