<svg width="1761" height="218" viewBox="0 0 1761 218" fill="none" xmlns="http://www.w3.org/2000/svg">
<path d="M2177.61 134.233L2156.97 130.179L2141.91 117.173L2120.09 110.888L2098.27 104.532L2081.42 93.446L2063.95 82.8873L2045.31 73.347L2019.34 71.5915L2000.58 62.2635L1978.83 56.4845L1959.33 47.4832L1936.78 48.027L1918.18 37.702L1896.51 35.8559L1874.84 34.7683L1853.21 34.6038L1831.54 38.3364L1810.32 34.1721L1789.24 32.5789L1767.04 34.8232L1745.66 25.6049L1726.09 15.1726L1706.25 4.35865L1679.97 1.97357L1662.05 9.25523L1642.71 14.6527L1626.15 23.58L1602.23 26.4969L1586.26 36.1327L1571.44 48.4659L1545.35 50.8748L1532.89 65.0564L1509.12 69.8266L1496.56 83.6099L1474.79 90.2571L1462.19 103.659L1438.47 109.238L1423.62 121.01L1405.62 130.753L1391.8 143.053L1379.25 155.913L1368.29 168.409L1356.48 180.597L1333.8 185.996L1323.68 199.906L1305.47 208.564L1281.96 209.811L1261.45 216.013L1240.78 207.956L1216.53 213.716L1199.63 202.029L1174.81 204.039L1160.82 189.841L1137.65 188.663L1115.97 185.636L1097.36 177.765L1078.12 169.561L1054.77 171.753L1034.7 163.023L1011.36 169.816L989.754 167.751L968.511 161.34L946.695 160.125L924.401 161.845L902.514 160.307L880.936 157.516L859.311 150.361L836.444 147.299L813.435 144.131L790.139 141.667L766.27 141.687L742.95 141.396L719.941 134.188L696.955 139.945L673.754 135.998L650.84 139.874L627.687 140.618L604.654 138.517L581.978 135.616L557.584 136.795L538.251 126.887L518.415 119.408L496.17 114.823L473.518 110.568L458.624 96.6419L433.8 95.8621L411.712 92.2583L389.648 88.6352L368.569 81.5898L346.371 85.2294L324.65 88.1487L303.032 90.2118L281.369 92.2225L258.86 83.8913L237.378 91.5522L215.226 93.2719L193.438 89.2172L169.701 89.6943L148.099 82.1764L126.617 76.2138L105.088 70.9261L79.7866 72.753L59.6555 64.5293L37.9349 59.2584L15.2594 55.8L1 52.5" stroke="#232323" stroke-width="2"/>
</svg>
